<svg xmlns="http://www.w3.org/2000/svg" viewBox="0 0 496 496"><path d="M295.016 349.52C333.32 331.704 360 292.952 360 248c0-16.28-3.808-32.44-10.696-47.216C356 191.552 360 180.248 360 168c0-29.624-23.144-53.888-52.288-55.816A71.583 71.583 0 0 0 320 72c0-39.704-32.296-72-72-72s-72 32.296-72 72c0 14.792 4.496 28.552 12.176 40h-2.88a27.083 27.083 0 0 1-25.712-18.528L157.768 88H136v80c0 12.248 4 23.552 10.696 32.784C139.808 215.56 136 231.72 136 248c0 44.952 26.68 83.704 64.984 101.52C140.504 366.584 96 422.136 96 488v8h304v-8c0-65.864-44.504-121.416-104.984-138.48zm11.008 20.752a128.538 128.538 0 0 1 27.536 16.04l-30.184 54.328-8.44-12.656L281.44 401l24.584-30.728zM268.16 392h-40.32l-21.848-27.312C216.84 361.696 228.216 360 240 360h16c11.784 0 23.16 1.696 34 4.688L268.16 392zM248 16c30.872 0 56 25.128 56 56s-25.128 56-56 56-56-25.128-56-56 25.128-56 56-56zm-96 96.28A43.04 43.04 0 0 0 185.296 128h17.544c12.36 9.984 28.064 16 45.16 16s32.792-6.016 45.16-16H304c22.056 0 40 17.944 40 40s-17.944 40-40 40H192c-22.056 0-40-17.944-40-40v-55.72zM152 248c0-12.168 2.296-23.912 6.72-35.072C168.032 219.848 179.528 224 192 224h112c12.472 0 23.968-4.152 33.28-11.072 4.424 11.16 6.72 22.904 6.72 35.072 0 52.936-43.064 96-96 96s-96-43.064-96-96zm37.976 122.28l24.584 30.728-13.496 26.976-8.44 12.664-30.184-54.328a127.683 127.683 0 0 1 27.536-16.04zM209.44 480h-97.192c2.008-32.368 16.168-61.448 37.872-82.912l41.248 74.256 17.864-26.792 6.072 6.072L209.44 480zm60.8 0h-44.48l6.928-34.632-14.952-14.944L228.944 408h38.112l11.208 22.424-14.952 14.944L270.24 480zm16.32.008V480l-5.872-29.368 6.072-6.072 17.864 26.792 41.248-74.256c21.704 21.464 35.872 50.544 37.872 82.912H286.56zM392.432 232l10.664-32H464v-16h-55.568l7.152-21.472-15.168-5.056L375.568 232l24.848 74.528 15.168-5.056L408.432 280H496v-16h-92.904z"/><path d="M95.584 157.472l-15.168 5.056L87.568 184H0v16h92.904l10.664 32-10.664 32H0v16h87.568l-7.152 21.472 15.168 5.056L120.432 232zM480 184h16v16h-16zm-245.04-80l58.24-49.928-10.4-12.144L229.04 88h-.76l-13.624-20.44-13.312 8.88L219.72 104zM416 224h16v16h-16zm32 0h16v16h-16z"/><path d="M64 224h16v16H64zm-32 0h16v16H32z"/></svg>