<svg xmlns="http://www.w3.org/2000/svg" viewBox="0 0 295.239 295.239"><path d="M128.572 219.048v23.81H33.333v9.524h228.571v-9.524h-95.238v-23.81h114.286c7.876 0 14.286-6.41 14.286-14.286V14.286C295.238 6.41 288.829 0 280.952 0H14.286C6.41 0 0 6.41 0 14.286v190.476c0 7.876 6.41 14.286 14.286 14.286h114.286zm28.571 23.809h-19.048v-23.81h19.048v23.81zM9.524 204.762V14.286a4.77 4.77 0 0 1 4.762-4.762h266.667a4.77 4.77 0 0 1 4.762 4.762v190.476h-.001a4.766 4.766 0 0 1-4.762 4.762H14.286a4.766 4.766 0 0 1-4.762-4.762z"/><path d="M276.19 38.095H19.048v142.857H276.19V38.095zm-9.524 133.334H28.571V47.619h238.095v123.81zm-133.333 19.047h28.571V200h-28.571z"/><path d="M61.905 138.095h34.01c2.129 8.19 9.524 14.286 18.371 14.286s16.243-6.095 18.371-14.286h44.21c2.129 8.19 9.524 14.286 18.371 14.286s16.243-6.095 18.371-14.286h29.248v-37.462l-34.952-4.995-14.486-28.971h-67.395L106.79 95.514 61.905 100.5v37.595zm52.381 4.762c-5.252 0-9.524-4.271-9.524-9.524 0-5.252 4.271-9.524 9.524-9.524 5.252 0 9.524 4.271 9.524 9.524 0 5.253-4.272 9.524-9.524 9.524zm80.952 0c-5.252 0-9.524-4.271-9.524-9.524 0-5.252 4.271-9.524 9.524-9.524 5.253 0 9.524 4.271 9.524 9.524 0 5.253-4.272 9.524-9.524 9.524zM71.429 109.024l40.829-4.538 18.862-28.295h56.414l14.086 28.171 31.714 4.529v19.681H213.61c-2.129-8.191-9.524-14.286-18.372-14.286s-16.243 6.095-18.371 14.286h-44.21c-2.129-8.19-9.524-14.286-18.371-14.286s-16.243 6.095-18.371 14.286H71.429v-19.548z"/><path d="M179.625 80.952H140.31l-15.871 23.81h63.124l-7.938-23.81zm-37.392 14.286l3.176-4.762h27.352l1.586 4.762h-32.114zM42.857 57.143h28.571v9.524H42.857zm0 19.047h28.571v9.524H42.857zm0 23.81h9.524v9.524h-9.524zm0 52.381h42.857v9.524H42.857zm176.191-95.238h33.333v9.524h-33.333zm0 19.047h33.333v9.524h-33.333zm0 76.191h33.333v9.524h-33.333zm-85.715 0h9.524v9.524h-9.524zm19.048 0h9.524v9.524h-9.524zM42.857 119.048h9.524v9.524h-9.524zm219.048 138.095c-18.381 0-33.333 14.957-33.333 33.333v4.762h66.667v-4.762c-.001-18.376-14.953-33.333-33.334-33.333zm-23.329 28.571c2.21-10.852 11.833-19.048 23.329-19.048 11.495 0 21.119 8.195 23.329 19.048h-46.658zM4.762 271.429h14.286v14.286H4.762v9.524h214.286v-33.333H4.762v9.523zm190.476-.001h14.286v14.286h-14.286v-14.286zm-23.809.001h14.286v14.286h-14.286v-14.286zm-23.81-.001h14.286v14.286h-14.286v-14.286zm-23.809 0h14.286v14.286H123.81v-14.286zm-23.81 0h14.286v14.286H100v-14.286zm-23.81 0h14.286v14.286H76.19v-14.286zm-23.809 0h14.286v14.286H52.381v-14.286zm-23.81.001h14.286v14.286H28.571v-14.286zM133.333 19.048h9.524v9.524h-9.524zm19.048 0h9.524v9.524h-9.524z"/></svg>