<svg xmlns="http://www.w3.org/2000/svg" viewBox="0 0 295.239 295.239"><path d="M209.525 71.429c0-7.876-6.41-14.286-14.286-14.286h-66.381l80.667 62.052V71.429zm-9.524 28.423l-43.143-33.186h38.381a4.77 4.77 0 0 1 4.762 4.762v28.424zm-28.571 81.1H66.667c-13.129 0-23.81 10.681-23.81 23.81h9.524c0-7.876 6.41-14.286 14.286-14.286H171.43c7.876 0 14.286 6.41 14.286 14.286h9.524c-.001-13.129-10.682-23.81-23.81-23.81zm0-28.571H66.667c-7.876 0-14.286-6.41-14.286-14.286h-9.524c0 13.129 10.681 23.81 23.81 23.81H171.43c13.129 0 23.81-10.681 23.81-23.81h-9.524c-.002 7.876-6.411 14.286-14.286 14.286z"/><path d="M275.276 182.929c-10.143-16.7-20.629-35.31-22.924-54.357h-9.462c-.767 4.762-2.51 12.886-4.79 19.148V57.143c0-13.129-10.681-23.81-23.81-23.81H104.763V0H19.048v33.814C8.196 36.029.001 45.648.001 57.143v214.286c0 13.129 10.681 23.81 23.81 23.81h190.476c10.243 0 18.919-6.538 22.271-15.633 3.557.848 7.248 1.348 11.062 1.348 26.257 0 47.619-21.229 47.619-47.486 0-17.797-9.695-33.635-19.963-50.539zM85.714 9.524h9.524v23.809h-9.524V9.524zm-19.047 0h9.524v23.81h-9.524V9.524zM47.62 33.333V9.524h9.524v23.81l-9.524-.001zM28.571 9.524h9.524v23.81h-9.524V9.524zm185.716 276.19H23.811c-7.876 0-14.286-6.41-14.286-14.286V57.143c0-7.876 6.41-14.286 14.286-14.286h190.476c7.876 0 14.286 6.41 14.286 14.286v110.89c-2.771 4.962-5.695 9.829-8.61 14.629-10.267 16.909-19.962 32.876-19.962 50.671 0 19.105 11.333 35.567 27.605 43.148-2.053 5.381-7.229 9.233-13.319 9.233zm33.333-14.285c-21.005 0-38.095-17.09-38.095-38.095 0-15.129 9.024-29.99 18.576-45.724 6.981-11.5 14.6-24.043 19.519-38.129 4.914 14.086 12.533 26.629 19.519 38.129 9.552 15.733 18.576 30.595 18.576 45.724-.001 21.004-17.09 38.095-38.095 38.095z"/><path d="M266.667 233.334c0 10.504-8.543 19.047-19.048 19.047v9.524c15.757 0 28.571-12.814 28.571-28.571h-9.523zM23.811 57.143h9.524v9.524h-9.524zm19.046 0h9.524v9.524h-9.524zm19.049 0h9.524v9.524h-9.524zM23.811 261.905h9.524v9.524h-9.524zm19.046 0h9.524v9.524h-9.524z"/></svg>