<svg xmlns="http://www.w3.org/2000/svg" viewBox="0 0 295.239 295.239"><path d="M180.952 200h9.524v-28.571h23.81V123.81H176.19V28.571h-14.286V0H123.81v28.571h-14.286v95.238H71.429v47.619h23.81V200h9.524v66.667h23.81v14.286h23.81v-14.286h4.762v4.738c-.029 2.391-.843 14.31-14.286 14.31h-14.286v9.524h14.286c18.833 0 23.81-15.576 23.81-23.81v-4.762h14.283V200zm-4.762-66.666h28.571v28.571H176.19v-28.571zM133.333 9.524h19.048v19.048h-19.048V9.524zm-14.285 104.762h9.524v-9.524h-9.524v-9.524h9.524v-9.524h-9.524V76.19h9.524v-9.524h-9.524v-9.524h9.524v-9.524h-9.524v-9.524h47.619v9.524h-9.524v9.524h9.524v9.524h-9.524v9.524h9.524v9.524h-9.524v9.524h9.524v9.524h-9.524v9.524h9.524v9.524h-47.619v-9.524zm47.619 19.047v28.571h-47.619v-28.571h47.619zm-85.715 28.571v-28.571h28.571v28.571H80.952zm23.81 28.573v-19.048h76.19v19.048h-76.19zm9.524 66.665v-7.971l27.91 7.971h-27.91zm28.571 14.287h-4.762v-4.762h4.762v4.762zm28.572-15.833l-57.143-16.329v-9.143l57.143 16.329v9.143zm0-19.053l-57.143-16.329v-9.143l57.143 16.329v9.143zm0-19.048l-57.143-16.329V200h57.143v17.495z"/><path d="M138.095 104.762h9.524v9.524h-9.524zm0-19.048h9.524v9.524h-9.524zm133.334 200h23.81v9.524h-23.81zm-41.272 1.216l47.623-42.862 6.371 7.08-47.623 42.862zm-52.887.52l66.664-80.946 7.348 6.051-66.663 80.946zM66.667 0h9.524v76.19h-9.524zM47.619 38.095h9.524V76.19h-9.524zm0 47.619h9.524v9.524h-9.524zM0 285.714h23.81v9.524H0zm58.723 8.303L11.1 251.155l6.371-7.08 47.623 42.863zm51.885-.512l-66.664-80.946 7.348-6.051 66.663 80.946z"/></svg>