<svg xmlns="http://www.w3.org/2000/svg" viewBox="0 0 295.239 295.239"><path d="M280.567 252.381h.386V223.81c0-.614-.057-15.229-5.148-30.448l-15.524-36.219h-25.324l-15.667 36.59c-4.948 14.848-5.005 29.462-5.005 30.076v9.524H200c-7.876 0-14.286-6.41-14.286-14.286v-19.833c22.733-13.2 38.095-37.752 38.095-65.881v-.676c8.19-2.129 14.286-9.519 14.286-18.371 0-8.557-3.224-13.962-5.029-16.324.162-.881.267-1.781.267-2.724v-9.524C233.333 38.453 194.881 0 147.619 0S61.905 38.452 61.905 85.714v9.524c0 .943.105 1.843.267 2.724-1.805 2.362-5.029 7.767-5.029 16.324 0 8.852 6.095 16.243 14.286 18.371v.676c0 28.129 15.362 52.681 38.095 65.881v19.833c0 7.876-6.41 14.286-14.286 14.286h-23.81v-6.71c9.362-5.676 14.286-14.819 14.286-26.624 0-11.59-7.819-25.086-22.762-28.457l-5.81-1.31v25.005h-9.524v-25.014l-5.819 1.319c-14.938 3.4-22.752 16.886-22.752 28.457 0 11.805 4.924 20.943 14.286 26.624V238.6C13.695 247.648 0 267.471 0 290.477v4.762h9.524v-4.762c0-24.648 18.829-44.981 42.857-47.376v52.138h9.524v-52.381H76.19v52.381h9.524v-52.381h9.524c1.943 0 3.8-.3 5.61-.738 4.138 22.067 23.519 38.833 46.771 38.833s42.633-16.767 46.771-38.833c1.81.438 3.667.738 5.61.738h9.524v52.381h9.524v-52.381h14.286v52.381h9.524V243.1c24.029 2.4 42.857 22.729 42.857 47.376v4.762h9.524v-4.762c-.001-14.643-5.582-27.971-14.672-38.095zm-216.02-32.838l-2.643 1.314v12.476h-4.762c-4.938 0-9.71.695-14.286 1.881v-14.357l-2.642-1.314c-7.833-3.89-11.643-10.281-11.643-19.543 0-6.119 3.252-13.033 9.524-16.833v21.595h28.571v-21.605c6.271 3.79 9.524 10.714 9.524 16.843 0 9.262-3.81 15.652-11.643 19.543zM223.81 110.201c1.324-.867 2.543-1.781 3.624-2.757.624 1.729 1.138 3.995 1.138 6.843-.001 3.509-1.929 6.547-4.762 8.2v-12.286zM142.857 9.768v33.09h9.524V9.768c38.957 2.429 70.014 34.19 71.3 73.443-16.948-9.033-52.519-11.781-76.062-11.781s-59.114 2.748-76.062 11.776c1.286-39.249 32.343-71.016 71.3-73.438zM71.429 122.482c-2.834-1.648-4.762-4.686-4.762-8.195 0-2.852.514-5.119 1.138-6.848 1.081.981 2.3 1.895 3.624 2.757v12.286zm.004-27.229c.933-4.857 28.633-14.3 76.186-14.3 47.581 0 75.29 9.452 76.19 14.286.001 9.361-28.499 19.047-76.19 19.047-47.667 0-76.162-9.676-76.186-19.033zm9.519 38.08v-18.405c20.995 8 53.533 8.881 66.667 8.881s45.671-.881 66.667-8.881v18.405c0 36.762-29.905 66.667-66.667 66.667s-66.667-29.905-66.667-66.667zm66.667 138.096c-19.51 0-35.624-14.752-37.819-33.686 5.586-4.357 9.248-11.076 9.248-18.695v-15.133c8.833 3.59 18.467 5.61 28.571 5.61s19.738-2.019 28.571-5.61v15.133c0 7.619 3.662 14.338 9.248 18.695-2.195 18.933-18.309 33.686-37.819 33.686zm89.429-38.095H223.81v-9.524c0-.133.052-13.667 4.376-26.695l13.048-30.448h1.624V210.4c-5.529 1.971-9.524 7.21-9.524 13.41 0 3.672 1.433 6.99 3.714 9.524zm10.571-4.762a4.766 4.766 0 0 1-4.762-4.762 4.766 4.766 0 0 1 4.762-4.762 4.766 4.766 0 0 1 4.762 4.762 4.766 4.766 0 0 1-4.762 4.762zm23.81 15.585c-4.924-3.552-10.4-6.386-16.319-8.238 4.062-2.519 6.795-6.986 6.795-12.11 0-6.2-3.995-11.438-9.524-13.41v-43.733h1.624l12.905 30.077c4.448 13.333 4.519 26.933 4.519 27.071v20.343z"/><path d="M152.381 138.095h42.857v-9.524h-52.381v47.619h9.524zm-66.667-76.19h9.524v9.524h-9.524zm19.048-4.762h9.524v9.524h-9.524z"/></svg>