<svg xmlns="http://www.w3.org/2000/svg" viewBox="0 0 295.238 295.238"><path d="M71.429 285.714h9.524v9.524h-9.524zM176.19 38.095h9.524v9.524h-9.524zM147.619 200c-21.005 0-38.095 17.09-38.095 38.095s17.09 38.095 38.095 38.095 38.095-17.09 38.095-38.095S168.624 200 147.619 200zm0 66.666c-15.757 0-28.571-12.814-28.571-28.571 0-15.757 12.814-28.571 28.571-28.571s28.571 12.814 28.571 28.571c0 15.757-12.814 28.571-28.571 28.571z"/><path d="M176.189 152.381v-28.572h20.587l9.524 23.81h31.795V15.748l-3.086-1.162C233.419 13.99 195.548 0 147.619 0s-85.8 13.99-87.39 14.586l-3.086 1.162v131.871h31.795l9.524-23.81h20.586v28.572c0 13.586 0 21.924-16.848 47.619H71.429v76.19h35.852c10.676 12.472 24.576 19.048 40.338 19.048s29.662-6.576 40.337-19.048h35.852V200h-30.771c-16.848-25.695-16.848-34.033-16.848-47.619zM147.62 9.524c38.519 0 71.047 9.652 80.952 12.919v15.652h-33.334v9.524h33.334v9.524H66.668v-9.524h99.999v-9.524H66.668V22.443c9.904-3.267 42.433-12.919 80.952-12.919zM92.014 114.285l-9.524 23.81H66.668V66.667h161.904v71.428h-15.824l-9.524-23.81H92.014zm122.27 119.048h-19.046v9.524h19.046v23.81h-30.862l-1.433 1.795c-9.119 11.447-20.686 17.252-34.371 17.252s-25.252-5.804-34.371-17.252l-1.433-1.795H80.952v-23.81H100v-9.524H80.952v-23.809h26.358l1.414-2.119c19.848-29.772 19.848-40.367 19.848-55.024v-28.572h38.093v28.572c0 14.657 0 25.253 19.848 55.024l1.414 2.119h26.357v23.809zM41.462 253.777c-11.085-11.086-17.685-25.848-17.652-39.481.033-13.5 6.795-28.638 17.652-39.5l-6.733-6.733c-12.767 12.771-20.405 30.043-20.443 46.214-.038 16.109 7.605 33.395 20.443 46.233l6.733-6.733z"/><path d="M9.524 233.333H0c0 34.134 27.771 61.905 61.905 61.905v-9.524c-28.881 0-52.381-23.5-52.381-52.381zM260.51 260.51c12.838-12.839 20.48-30.124 20.443-46.233-.038-16.166-7.676-33.443-20.443-46.214l-6.733 6.733c10.857 10.862 17.619 26 17.652 39.5.034 13.633-6.566 28.395-17.652 39.481l6.733 6.733z"/><path d="M285.714 233.333c0 28.881-23.5 52.381-52.381 52.381v9.524c34.134 0 61.905-27.771 61.905-61.905h-9.524zm-147.619-100h9.524v9.524h-9.524zm0 19.048h9.524v9.524h-9.524z"/></svg>