<?xml version="1.0" encoding="iso-8859-1"?>
<!-- Generator: Adobe Illustrator 19.0.0, SVG Export Plug-In . SVG Version: 6.00 Build 0)  -->
<svg version="1.1" id="Layer_1" xmlns="http://www.w3.org/2000/svg" xmlns:xlink="http://www.w3.org/1999/xlink" x="0px" y="0px"
	 viewBox="0 0 511.999 511.999" style="enable-background:new 0 0 511.999 511.999;" xml:space="preserve">
<path style="fill:#9DD5FF;" d="M240.434,156.318h82.559c45.047,0,59.095,14.7,112.411,59.105
	c7.783,6.477,14.614,13.573,21.527,19.739c37.671,33.606,43.205,34.843,43.932,66.568c0.159,7.18,0.061,23.011,0.019,33.195
	c-0.028,5.789-0.066,12.425-0.066,21.047c0,11.224-10.596,20.491-23.911,21.279l-139.041,0.054h-79.731l-88.907-0.048
	c-9.969-0.544-18.44-5.846-22.102-13.166c-1.253-2.504-1.949-5.25-1.949-8.12V189.815c0-18.872,15.468-34.128,34.448-33.979
	L240.434,156.318z"/>
<path style="fill:#84B8C3;" d="M145.174,225.444v-35.626c0-18.872,15.468-34.128,34.448-33.979l60.811,0.479h82.559
	c45.047,0,59.095,14.7,112.411,59.105c3.905,3.251,7.57,6.656,11.126,10.02H145.174V225.444z"/>
<path style="fill:#FD9702;" d="M500.863,301.731c0.159,7.18,0.061,23.011,0.019,33.195c-0.028,5.789-0.066,12.425-0.066,21.047
	c0,11.224-10.596,20.491-23.911,21.279l-139.041,0.054h-79.731l-88.907-0.048c-9.969-0.544-18.44-5.846-22.102-13.166
	c-1.253-2.504-1.949-5.25-1.949-8.12V189.817c0-18.872,15.466-34.128,34.448-33.979l13.468,0.106
	c30.892,42.999,99.891,123.178,111.316,123.178h162.197h28.326h3.045C499.944,284.977,500.637,291.883,500.863,301.731z"/>
<path style="fill:#9BD1D9;" d="M435.41,215.424c-53.316-44.405-67.364-59.105-112.411-59.105H240.44l-60.811-0.479
	c-16.638-0.131-30.575,11.578-33.762,27.18c12.193,0,27.065,0,42.489,0c35.44,0,109.582,0,125.052,0
	C377.331,183.02,439.315,218.673,435.41,215.424z"/>
<path style="fill:#84B8C3;" d="M179.628,155.84c-16.638-0.131-30.575,11.578-33.762,27.18c12.193,0,27.065,0,42.489,0
	c0.493,0,0.986,0,1.479,0l12.012-27.005L179.628,155.84z"/>
<path style="fill:#F66D00;" d="M159.234,251.82l39.323-88.41c-1.927-2.587-3.758-5.086-5.467-7.464l-13.468-0.106
	c-18.982-0.15-34.448,15.107-34.448,33.979v62.002h14.06V251.82z"/>
<path style="fill:#FFA119;" d="M145.866,183.02c12.193,0,57.913,0,42.489,0h25.301c-7.759-9.806-14.819-19.084-20.56-27.074
	l-13.468-0.106C162.99,155.709,149.053,167.416,145.866,183.02z"/>
<path style="fill:#F88D00;" d="M193.097,155.946l-13.468-0.106c-16.638-0.131-30.575,11.578-33.762,27.18c8.559,0,33.634,0,42.489,0
	c0.563,0,1.057,0,1.479,0l8.726-19.617C196.639,160.821,194.803,158.32,193.097,155.946z"/>
<path style="fill:#F66D00;" d="M500.858,324.316c-0.023,4.678-0.044,25.258-0.044,31.658c0,11.224-10.596,20.491-23.911,21.279
	l-139.041,0.054h-79.731l-88.907-0.048c-9.969-0.546-18.44-5.846-22.103-13.166c-1.253-2.504-1.949-5.25-1.949-8.12v-31.658
	c0,0,6.263,15.277,24.049,15.277s290.024,0,307.681,0C494.56,339.591,500.858,324.316,500.858,324.316z"/>
<path style="fill:#004356;" d="M258.133,377.31c0,24.408-19.903,44.197-44.454,44.197c-24.553,0-44.457-19.789-44.457-44.197
	c0-24.412,19.903-44.197,44.457-44.197C238.229,333.113,258.133,352.898,258.133,377.31z M432.448,333.113
	c-24.553,0-44.457,19.785-44.457,44.197c0,24.408,19.903,44.197,44.457,44.197c24.553,0,44.457-19.789,44.457-44.197
	C476.903,352.898,457,333.113,432.448,333.113z"/>
<g>
	<path style="fill:#00313D;" d="M213.68,377.31c-15.523,0-30.227-3.48-43.373-9.691c-0.702,3.121-1.084,6.359-1.084,9.691
		c0,24.408,19.903,44.197,44.457,44.197c24.551,0,44.454-19.789,44.454-44.197c0-3.33-0.383-6.57-1.084-9.691
		C243.903,373.83,229.201,377.31,213.68,377.31z"/>
	<path style="fill:#00313D;" d="M432.448,377.31c-15.523,0-30.226-3.48-43.371-9.691c-0.702,3.121-1.084,6.361-1.084,9.691
		c0,24.408,19.903,44.197,44.457,44.197s44.457-19.789,44.457-44.197c0-3.331-0.383-6.571-1.084-9.691
		C462.674,373.83,447.97,377.31,432.448,377.31z"/>
</g>
<path style="fill:#FDB900;" d="M11.049,90.492h207.73l-54.423,122.356H11.049V90.492L11.049,90.492z"/>
<path d="M431.823,433.797c-30.996,0-56.214-25.218-56.214-56.214s25.218-56.213,56.214-56.213c25.353,0,46.843,16.872,53.826,39.976
	c1.494-1.513,2.383-3.3,2.383-5.147c0-7.869,0.03-14.092,0.058-19.526l0.025-5.441c0.044-9.683,0.103-22.945-0.032-29.137
	c-0.098-4.348-0.217-7.917-0.523-11.003H304.235c-4.277,0-14.292,0-44.943-30.289c-9.339-9.227-27.899-28.864-31.317-37.135
	c-2.513-6.084,0.381-13.051,6.464-15.564c5.993-2.473,12.838,0.295,15.446,6.189c1.619,2.901,11.311,14.791,25.358,28.765
	c17.692,17.598,27.092,23.297,29.654,24.201h169.268c-3.834-3.676-8.752-8.033-15.072-13.631c-3.278-2.905-6.879-6.096-10.833-9.643
	c-2.88-2.583-5.749-5.324-8.524-7.975c-4.056-3.876-8.249-7.882-12.617-11.54c-3.852-3.227-7.497-6.295-10.962-9.213
	c-44.222-37.238-56.108-47.246-93.402-47.246h-82.268c-6.582,0-11.917-5.335-11.917-11.917s5.335-11.917,11.917-11.917h82.268
	c45.99,0,64.364,15.472,108.753,52.847c3.452,2.906,7.081,5.962,10.913,9.173c4.967,4.159,9.447,8.44,13.78,12.58
	c2.765,2.64,5.374,5.135,7.976,7.47c3.913,3.51,7.476,6.667,10.721,9.541c28.567,25.307,36.245,32.11,37.011,65.775
	c0.142,6.517,0.083,19.415,0.037,29.777l-0.025,5.452c-0.028,5.401-0.058,11.586-0.058,19.407c0,14.251-10.25,26.59-24.699,31.282
	C482.475,413.773,459.443,433.797,431.823,433.797z M431.823,345.201c-17.855,0-32.381,14.526-32.381,32.38
	c0,17.855,14.526,32.381,32.381,32.381c17.847,0,32.368-14.513,32.383-32.357c0-0.049,0-0.098,0-0.147
	C464.138,359.661,449.637,345.201,431.823,345.201z M213.829,433.797c-27.597,0-50.615-19.989-55.331-46.249
	c-9.553-3.025-17.43-9.399-21.659-17.903c-2.116-4.248-3.188-8.773-3.188-13.444v-92.43c0-6.582,5.335-11.917,11.917-11.917
	s11.917,5.335,11.917,11.917v92.43c0,0.953,0.233,1.904,0.692,2.827c0.405,0.814,1.01,1.642,1.795,2.423
	c6.951-23.156,28.466-40.079,53.857-40.079c26.908,0,49.46,19.006,54.942,44.295h68.802c6.582,0,11.917,5.335,11.917,11.917
	c0,6.582-5.335,11.917-11.917,11.917h-68.802C263.292,414.791,240.738,433.797,213.829,433.797z M181.446,377.767
	c0.101,17.77,14.588,32.196,32.382,32.196c17.854,0,32.38-14.526,32.38-32.381c0-17.854-14.526-32.38-32.38-32.38
	c-17.765,0-32.236,14.379-32.381,32.11C181.45,377.463,181.45,377.614,181.446,377.767z M431.838,389.499
	c-6.582,0-11.932-5.335-11.932-11.917s5.32-11.917,11.901-11.917h0.03c6.582,0,11.917,5.335,11.917,11.917
	S438.419,389.499,431.838,389.499z M213.842,389.499c-6.582,0-11.932-5.335-11.932-11.917s5.32-11.917,11.901-11.917h0.03
	c6.582,0,11.917,5.335,11.917,11.917S220.424,389.499,213.842,389.499z M89.828,361.915H62.693c-6.582,0-11.917-5.335-11.917-11.917
	s5.335-11.917,11.917-11.917h27.135c6.582,0,11.917,5.335,11.917,11.917S96.409,361.915,89.828,361.915z M89.828,319.115H29.149
	c-6.582,0-11.917-5.335-11.917-11.917c0-6.582,5.335-11.917,11.917-11.917h60.679c6.582,0,11.917,5.335,11.917,11.917
	C101.745,313.78,96.409,319.115,89.828,319.115z M218.91,291.088h-13.402c-6.582,0-11.917-5.335-11.917-11.917
	s5.335-11.917,11.917-11.917h13.402c6.582,0,11.917,5.335,11.917,11.917C230.827,285.754,225.492,291.088,218.91,291.088z
	 M164.68,224.667H11.917C5.335,224.667,0,219.332,0,212.751V90.119c0-6.582,5.335-11.917,11.917-11.917H218.91
	c4.03,0,7.787,2.036,9.986,5.414c2.199,3.378,2.542,7.636,0.912,11.322L175.578,217.57
	C173.67,221.885,169.397,224.667,164.68,224.667z M23.833,200.834h133.088l43.691-98.799H23.833V200.834z M127.145,181.544
	c-6.582,0-11.939-5.335-11.939-11.917c0-6.582,5.313-11.917,11.894-11.917h0.044c6.582,0,11.917,5.335,11.917,11.917
	S133.727,181.544,127.145,181.544z M78.705,181.544c-6.582,0-11.94-5.335-11.94-11.917c0-6.582,5.313-11.917,11.894-11.917h0.045
	c6.582,0,11.917,5.335,11.917,11.917S85.287,181.544,78.705,181.544z M151.369,145.159c-6.582,0-11.939-5.335-11.939-11.917
	s5.312-11.917,11.893-11.917h0.046c6.582,0,11.917,5.335,11.917,11.917C163.285,139.823,157.951,145.159,151.369,145.159z
	 M102.923,145.159c-6.582,0-11.939-5.335-11.939-11.917s5.315-11.917,11.895-11.917h0.042c6.582,0,11.917,5.335,11.917,11.917
	C114.84,139.823,109.505,145.159,102.923,145.159z M54.481,145.159c-6.582,0-11.939-5.335-11.939-11.917s5.313-11.917,11.894-11.917
	h0.044c6.582,0,11.917,5.335,11.917,11.917C66.398,139.823,61.063,145.159,54.481,145.159z"/>
<g>
</g>
<g>
</g>
<g>
</g>
<g>
</g>
<g>
</g>
<g>
</g>
<g>
</g>
<g>
</g>
<g>
</g>
<g>
</g>
<g>
</g>
<g>
</g>
<g>
</g>
<g>
</g>
<g>
</g>
</svg>
