<svg version="1" xmlns="http://www.w3.org/2000/svg" width="346.667" height="346.667" viewBox="0 0 260.000000 260.000000"><path d="M0 130v130h260V0H0v130zm230.5-70.7c2.8.8 6.2 1.9 7.6 2.5l2.7 1.1-2.1 7.1c-1.9 6.3-2.4 7-4.2 6.5-14.3-4.8-28.5-5.8-40.4-3-17.9 4.2-31.2 18-35.6 36.7-1.9 8.1-1.9 25.5 0 33.6 4.5 19.1 18.3 32.6 37.3 36.3 8.6 1.6 25.9.7 34.2-2 4.2-1.3 6.6-1.7 7.1-1 1.4 2.2 3.1 12.1 2.2 13-.5.5-4.5 1.8-8.8 3-6.6 1.8-10.9 2.2-24 2.3-14.1.1-16.9-.2-23.5-2.2-11.4-3.6-18.8-8-26.6-15.7-11.9-11.8-17.1-25.1-18.1-45.6-1.8-38.1 18.1-65.4 53.7-73.4 8-1.8 31.1-1.3 38.5.8zM117 126.5V194H99V74H55v31.2c0 41.8-1.7 55.7-8.3 69.7-5.5 11.7-15.8 19.3-28.4 20.8-4.1.5-4.2.5-4.8-2.8-.3-1.9-.7-5.2-.8-7.3-.2-3.5.1-4 2.8-4.9 5.6-1.8 11-6.3 14.2-11.6 6.5-10.9 8.3-27 8.3-75.4V59h79v67.5z"/></svg>